<svg xmlns="http://www.w3.org/2000/svg" width="109.612" height="140.27" viewBox="0 0 109.612 140.27"><defs><style>.a{fill:#e8c8a1;stroke:#132a3e;stroke-miterlimit:10;}.b{fill:#132a3e;}</style></defs><g transform="translate(-34.694 -19.113)"><path class="a" d="M139.092,149.711a2.8,2.8,0,1,0-5.6-.075v.075a2.8,2.8,0,0,0,5.6.076C139.093,149.762,139.093,149.737,139.092,149.711Z"/><path class="b" d="M110.607,140.039a3.756,3.756,0,0,0-3.756,3.756v11.832a3.756,3.756,0,0,0,3.756,3.756h29.942a3.757,3.757,0,0,0,3.757-3.756V143.795a3.757,3.757,0,0,0-3.757-3.756Zm0,1.587h29.942a2.17,2.17,0,0,1,2.17,2.169v11.832a2.17,2.17,0,0,1-2.17,2.169H110.607a2.169,2.169,0,0,1-2.169-2.169V143.795a2.17,2.17,0,0,1,2.169-2.17Z"/><path class="b" d="M40.85,96.269A6.339,6.339,0,0,0,36.9,107.407l21.762,18.761a15.024,15.024,0,0,0,9.816,3.644H97.79a13.124,13.124,0,0,1,10.438,5.857h31.95a1.878,1.878,0,0,0,1.753-2.559L133.59,111.7a22.546,22.546,0,0,0-21-14.355h-30.9a5.858,5.858,0,0,0,0,11.715H96.42a1.938,1.938,0,0,1,0,3.873H72.985A18.784,18.784,0,0,1,62.308,109.6L44.637,97.391a6.338,6.338,0,0,0-3.787-1.122Zm0,1.581a4.744,4.744,0,0,1,2.856.843l17.671,12.216a20.364,20.364,0,0,0,11.577,3.607H96.389a3.525,3.525,0,0,0,0-7.047H81.656a4.271,4.271,0,0,1,0-8.54h30.9a20.956,20.956,0,0,1,19.523,13.343l8.343,21.414a.291.291,0,0,1-.276.4H109.011a14.711,14.711,0,0,0-11.231-5.857H68.44a13.439,13.439,0,0,1-8.783-3.26L37.9,106.205a4.752,4.752,0,0,1,2.949-8.355Z"/><path class="a" d="M86.092,34.245A11.989,11.989,0,0,1,96.431,36.94a14.194,14.194,0,0,0-5.671,4.705l-2.051-2.051a2.4,2.4,0,0,0-1.553-.7,12.108,12.108,0,0,0,10.49,7.123,11.983,11.983,0,0,1-.216,2.2,14.32,14.32,0,0,1-12.3-8.427,2.4,2.4,0,0,0,.18,3.193L88.6,46.28a14.2,14.2,0,0,0,1.975,11.513,11.984,11.984,0,0,1-6.7-.774L82.591,60l-2.987.073-.12,2.538-2.545.072-.12,2.545-2.545.072-.12,2.545-2.545.072-.12,2.545-2.545.072-.12,2.545-3.211.1-.7.7a3.652,3.652,0,0,1-5.164,0h0l-1.14-1.136a3.652,3.652,0,0,1,0-5.164h0L76.8,49.378A11.988,11.988,0,0,1,83.66,34.939a14.32,14.32,0,1,1,27.658,4.12,14.035,14.035,0,0,0-1.868-1.348,12.109,12.109,0,1,0-23.609-3.452Z"/><path class="a" d="M101.872,89.749h-1.6A3.653,3.653,0,0,1,96.615,86.1h0V60.372A11.988,11.988,0,0,1,90.488,48.13a16.165,16.165,0,0,0,9.147,1.892h7.121a2.4,2.4,0,0,0,0-4.8h-6.572a13.013,13.013,0,0,1-7.411-2.584,11.988,11.988,0,1,1,14.085,18.317l1.2,3.018-2.065,2.16,1.744,1.845-1.749,1.85,1.749,1.85-1.749,1.851,1.749,1.85-1.749,1.85,1.749,1.85-1.749,1.851,1.749,1.85-2.207,2.334V86.1a3.652,3.652,0,0,1-3.651,3.652h-.006Z"/></g></svg>