<svg xmlns="http://www.w3.org/2000/svg" width="171.142" height="131.307" viewBox="0 0 171.142 131.307"><defs><style>.a{fill:#132a3e;}.b{fill:#e8c8a1;stroke:#132a3e;stroke-linejoin:round;}</style></defs><g transform="translate(-3.929 -23.846)"><path class="a" d="M30.662,51.473v8.5L21.9,65.22V56.626l8.765-5.153m.57-.988-9.906,5.837v9.887l9.906-5.818V50.485Z"/><path class="a" d="M81.486,24.835v8.518l-8.766,5.21V29.988l8.766-5.153m.57-.989L72.15,29.665v9.887l9.906-5.818Z"/><path class="a" d="M18.17,104.655l12.093,7.035-14.071,8.119a.531.531,0,0,0-.19.722.517.517,0,0,0,.457.267.544.544,0,0,0,.266,0l14.6-8.423,13.6,7.89-14.279,8.157a.513.513,0,0,0-.2.7l.015.027a.535.535,0,0,0,.456.266.481.481,0,0,0,.266,0l14.793-8.594,12.758,7.415-14.374,8.29a.514.514,0,0,0-.206.7l.016.027a.534.534,0,0,0,.456.266.521.521,0,0,0,.266,0l14.888-8.6,14.26,8.29-14.545,8.329a.53.53,0,0,0-.19.722.515.515,0,0,0,.456.266.569.569,0,0,0,.266,0l15.059-8.689,12.853,7.472L72.72,154.148a.532.532,0,0,0,.267.988.521.521,0,0,0,.266,0l15.819-9.145,15.515,9.031a.525.525,0,0,0,.267,0,.532.532,0,0,0,.266-.988l-15-8.709,12.321-7.111,14.869,8.651a.521.521,0,0,0,.266,0,.532.532,0,0,0,.266-.988l-14.355-8.347,14.431-8.328,14.869,8.727a.521.521,0,0,0,.266,0,.534.534,0,0,0,.456-.266.514.514,0,0,0-.163-.708l-.027-.015L118.9,128.555l11.408-6.6v1.464h2.263v-2.11l13.747,8a.569.569,0,0,0,.266,0,.532.532,0,0,0,.266-.989l-13.8-8.024,14.127-8.157,14.146,8.233a.485.485,0,0,0,.267,0,.532.532,0,0,0,.266-.988l-13.614-7.8,5.153-2.966v.779h2.262v-2.091l4.6-2.643,14.032,8.366.779-1.293-19.432-11.56V90.566h0L130.693,76.058l-7.89,4.564-7.3-4.336V68.909h0L90.555,54.383,66.579,68.263V32.212L65.5,31.6,37.849,47.328l-.361.628V90.927a.789.789,0,0,0,0,.342L3.929,111.31l.779,1.293Zm137.469-2.7,3.556,2.11-3.556,2.054Zm-2.262-3.118-5.876-3.5,5.876-3.441Zm-6.2,12.15-12.853-7.473L146.532,96.5l6.883,4.107v6.807Zm-14.6-6.465.7-.4,12.854,7.472L132.6,119.429ZM46.5,87.695,57,93.8v2.453l-12.3,7.111L32.335,96.1Zm58.943,2.928v3.955l-7.092-4.069,5.7-3.309,3.632,2.111-2.263,1.312ZM97.1,109.941h0v5.951l-7.472-4.354,7.472-4.3ZM99,111.12v8.86H97.78v-9.507ZM97.1,91.25v8.233l-4.715-2.738V93.969Zm13.443,26.619v5.838l-5.609-3.271,5.038-2.909.571.323Zm-6.655,1.9-4.335-2.529v-5.7l9.412,5.476Zm-1.065.608-14.431,8.328-14.109-8.214,14.432-8.328,8.385,4.963v2.852a.607.607,0,0,0,.608.608H99a.607.607,0,0,0,.609-.608v-1.426Zm-29.737-.57-12.74-7.415,10.5-6.066h1.54a.608.608,0,0,0,.609-.608v-.628l1.9-1.1,12.7,7.568ZM84.737,87.98V98.19H83.52V88.683L72.378,95.376v10.477H71.142V80.317l.209-.114L84.87,88.056h0Zm-1.9,1.787v1.388l-1.179-.684Zm0,8.366-8.138,4.7-1.9-1.122V95.737l7.815-4.582,2.244,1.293Zm-9.2,5.305-.856.494v-.988ZM59.2,111.766l-13.443-7.815,11.256-6.5V98.3a.608.608,0,0,0,.608.609H58.84a.608.608,0,0,0,.609-.609V96.1l.722-.419,10.306,5.933v3.8Zm.133-17.873V89.862L63.746,92.3l-3.575,2.072Zm-1.9,4.335V88.721l1.217.7v8.86ZM47.356,86.972l9.507-5.7v6.883h0v4.278Zm17.7-14.222-7.91-4.544a.208.208,0,0,0-.289.06.219.219,0,0,0-.034.13V79.538L38.648,90.414V48.355l26.6-15Zm5.419,23.463v4.164l-9.222-5.362,3.518-2.054Zm-.266-24.471-2.586,1.54V70.259Zm14.6,8.442-6.179,3.575L71.58,79.671a.584.584,0,0,0-.305,0h-.209V76.305a.227.227,0,0,0-.114-.19l-2.605-1.5,3.347-2Zm5.381,3.1V94.045L89,94.73l-3.574-2.073V88.132h0a.567.567,0,0,0-.153-.4l-.171-.152-5.4-3.138,6.161-3.555,4.316,2.491ZM87.931,95.338,85.4,96.8V93.874Zm2.244,0h0Zm2.263,6.465V98l4.658,2.7V106l-8.537,4.924L75.82,103.514l8.042-4.639h.875a.607.607,0,0,0,.608-.609V98l3.575-2.072,1.2.7V101.8Zm1.73-20.364,8.936,5.153-10.666,6.16V82.409Zm19.014-6.465L109.189,72.6l3.993-2.339Zm0,1.769v4.031l-9.089,5.247-8.9-5.247,12.549-7.34,5.476,3.271Zm0,9.507L108.77,88.8l-3.555-2.2,8.043-4.64ZM114.589,96l-3.423,2v-.133l-3.308-1.9V91.935Zm2.034-17.113-1.179.685v-1.54Zm4.62,2.757L115.539,85V80.641l2.225-1.274Zm8.709,23.292-6.2,3.575-12.111-7.035a.584.584,0,0,0-.305,0h-.209V99.122l4.506-2.605Zm-17.531,12.074v10.5H111.2V101.974l.209-.114,13.519,7.853h0v10.21h-1.217v-9.507Zm10.667-5.533v3.061l-2.624-1.521Zm7.225-5.7v12.948l-4.7-2.719v-6.217h0a.609.609,0,0,0-.152-.4l-.191-.152-.323-.19,5.438-3.137ZM117.84,127.928l-4.791-2.795v-7.739l6.388-3.8,3.67,2.13v4.145a.608.608,0,0,0,.608.608h1.217a.608.608,0,0,0,.609-.608v-2.643L130.313,120v.818Zm-28.35,1.464,14.432-8.328,6.655,3.8v2.6a.608.608,0,0,0,.608.609H112.4a.608.608,0,0,0,.609-.609v-1.178l3.8,2.186-14.431,8.328Zm-13.309,7.719L88.5,130l12.853,7.473-12.321,7.111Zm-15.325-8.9L73.177,121.1l14.26,8.29L75.116,136.5Zm-13.8-8.024,12.321-7.13,12.739,7.415-12.321,7.112Zm-14.6-8.5,12.321-7.111,13.6,7.891-12.416,7.111ZM19.14,104.027l12.111-7.244,12.34,7.168-12.283,7.112Z"/><path class="b" d="M107.858,91.935c1.174.671,1.921,1.146,3.131,1.893,0,0,.2.124,3.6,2.176,4,2.417,14.824,8.627,15.363,8.936l2.624-.418c4.2-2.261,8.546-4.745,13-7.476q5.286-3.24,10.061-6.48L130.693,76.058l-25.25,14.565C106,90.912,106.848,91.358,107.858,91.935Z"/><path class="b" d="M130.313,105.954l.009-1.073,2.254-.359v18.9h-2.263Z"/><path class="b" d="M153.377,91.935l.019,17.473h2.262q-.009-9.421-.019-18.842Z"/><path class="b" d="M105.443,90.623v3.955l2.415,1.388V91.935l-2-1.089Z"/><path class="b" d="M111.166,97.867q.02,10.181.038,20.361l-1.236-.7L97.1,110.143q.006-10.161.011-20.322l1.6.892Z"/><path class="b" d="M71.1,76.063l.039,20.36-1.259-.7L56.768,88.339q.006-10.161.011-20.322l1.631.892Z"/><path class="b" d="M90.175,83.379l2.263-.97,23.063-13.5L90.555,54.383l-25.48,14.76,2.55,1.116Z"/><path class="b" d="M90.118,101.8h2.32V82.409l-2.263.97Z"/><path class="b" d="M113.182,70.267q0,7.946,0,15.891l2.356-1.359q-.018-7.946-.038-15.89Z"/><path class="b" d="M65.075,69.143l-.017,3.513,2.612,1.472-.045-3.869Z"/></g></svg>