<svg xmlns="http://www.w3.org/2000/svg" width="140.754" height="127.421" viewBox="0 0 140.754 127.421"><defs><style>.a{fill:none;}.a,.b{stroke:#132a3e;stroke-miterlimit:10;}.b{fill:#e8c8a1;}</style></defs><g transform="translate(-19.123 -25.944)"><path class="a" d="M120.656,58.141V41.107L70.17,26.459v-.015h-.03v.015L19.623,41.107v89.867L70.125,144v.015h.03V144l7.609-1.966,40.746,10.506v.015l.03-.015.03.015v-.015l40.807-10.521V69.367Z"/><path class="b" d="M38.638,104.606a2.21,2.21,0,0,1-2.656,2.011L29.813,106a2.752,2.752,0,0,1-2.656-2.4V98.662a2.318,2.318,0,0,1,2.656-2.011l6.169.285a2.624,2.624,0,0,1,2.656,2.4v5.268Zm0-12.8A2.393,2.393,0,0,1,35.982,94l-6.169-.18a2.527,2.527,0,0,1-2.656-2.206V86.671a2.5,2.5,0,0,1,2.656-2.191l6.169-.15a2.422,2.422,0,0,1,2.656,2.206V91.8Zm0-12.8a2.611,2.611,0,0,1-2.656,2.386l-6.169.255a2.317,2.317,0,0,1-2.656-2.026V74.68a2.753,2.753,0,0,1,2.656-2.387l6.169-.585a2.227,2.227,0,0,1,2.656,2.026V79Zm0-12.787a2.846,2.846,0,0,1-2.656,2.567l-6.169.675c-1.47.165-2.656-.66-2.656-1.831V62.688a2.992,2.992,0,0,1,2.656-2.566l6.169-1.006c1.47-.24,2.656.586,2.656,1.831v5.268Zm0-12.8a3.093,3.093,0,0,1-2.656,2.747l-6.169,1.11c-1.47.271-2.656-.48-2.656-1.65V50.682a3.274,3.274,0,0,1,2.656-2.747l6.169-1.44c1.47-.345,2.656.39,2.656,1.651v5.267Zm24.013,53.279A2.331,2.331,0,0,1,59.994,109l-6.168-.615A2.882,2.882,0,0,1,51.17,105.7v-5.628a2.423,2.423,0,0,1,2.656-2.311l6.168.285a2.759,2.759,0,0,1,2.657,2.686Zm0-14.483A2.516,2.516,0,0,1,59.994,94.7l-6.168-.18a2.644,2.644,0,0,1-2.656-2.506V86.386a2.621,2.621,0,0,1,2.656-2.491l6.168-.151a2.538,2.538,0,0,1,2.657,2.507Zm0-14.468a2.735,2.735,0,0,1-2.657,2.672l-6.168.255a2.425,2.425,0,0,1-2.656-2.326V72.714a2.855,2.855,0,0,1,2.656-2.672l6.168-.585a2.341,2.341,0,0,1,2.657,2.326Zm0-14.482a2.993,2.993,0,0,1-2.657,2.866l-6.168.675a2.237,2.237,0,0,1-2.656-2.131V59.041a3.13,3.13,0,0,1,2.656-2.866l6.168-1.006A2.165,2.165,0,0,1,62.651,57.3Zm0-14.468a3.253,3.253,0,0,1-2.657,3.047l-6.168,1.11A2.068,2.068,0,0,1,51.17,51V45.369a3.419,3.419,0,0,1,2.656-3.046l6.168-1.441a2.006,2.006,0,0,1,2.657,1.951Zm14.993-5.958A2.005,2.005,0,0,1,80.3,40.882l6.168,1.441a3.42,3.42,0,0,1,2.657,3.046V51a2.083,2.083,0,0,1-2.657,1.951L80.3,51.838a3.279,3.279,0,0,1-2.656-3.047Zm0,20.426V57.3A2.157,2.157,0,0,1,80.3,55.169l6.168,1.006a3.131,3.131,0,0,1,2.657,2.866v5.628a2.078,2.078,0,0,1-.736,1.591L86.5,66.8h-.045l-6.168-.675A2.991,2.991,0,0,1,77.644,63.259Zm15.443,57.45a1.79,1.79,0,0,1-2.161,1.621l-5-.5a2.248,2.248,0,0,1-2.161-1.936v-3.993a1.87,1.87,0,0,1,2.161-1.62l5,.225a2.14,2.14,0,0,1,2.161,1.936Zm0-10.355a1.933,1.933,0,0,1-2.161,1.77l-5-.15a2.056,2.056,0,0,1-2.161-1.786V106.2a2.035,2.035,0,0,1,2.161-1.771l5-.12a1.963,1.963,0,0,1,2.161,1.786Zm0-10.341a2.106,2.106,0,0,1-2.161,1.921l-5,.195a1.9,1.9,0,0,1-2.161-1.636V96.5a2.21,2.21,0,0,1,2.161-1.921l5-.465a1.815,1.815,0,0,1,2.161,1.636Zm0-10.355a2.289,2.289,0,0,1-2.161,2.071l-5,.555c-1.186.135-2.161-.54-2.161-1.486V86.806a2.42,2.42,0,0,1,2.161-2.071l5-.825a1.677,1.677,0,0,1,2.161,1.485Zm0-10.341a2.506,2.506,0,0,1-2.161,2.221l-5,.9c-1.186.21-2.161-.375-2.161-1.336V77.111a2.638,2.638,0,0,1,2.161-2.221l5-1.171c1.185-.285,2.161.315,2.161,1.336Zm8.554-18.37c0-1.26,1.186-2.071,2.657-1.831l5.6.916-8.27,2.4V60.947Zm10.851,61.443a1.884,1.884,0,0,1-2.161,1.861l-5-.5a2.348,2.348,0,0,1-2.161-2.176v-4.548a1.953,1.953,0,0,1,2.161-1.861l5,.225a2.256,2.256,0,0,1,2.161,2.176Zm0-11.706a2.039,2.039,0,0,1-2.161,2.011l-5-.15a2.149,2.149,0,0,1-2.161-2.026v-4.548a2.126,2.126,0,0,1,2.161-2.011l5-.12a2.069,2.069,0,0,1,2.161,2.026Zm0-11.706a2.222,2.222,0,0,1-2.161,2.161l-5,.195a1.981,1.981,0,0,1-2.161-1.876V94.91a2.31,2.31,0,0,1,2.161-2.161l5-.465a1.91,1.91,0,0,1,2.161,1.876Zm0-11.707a2.416,2.416,0,0,1-2.161,2.312l-5,.555a1.824,1.824,0,0,1-2.161-1.726V83.865a2.528,2.528,0,0,1,2.161-2.312l5-.825a1.756,1.756,0,0,1,2.161,1.726Zm0-11.691a2.641,2.641,0,0,1-2.161,2.461l-5,.9a1.693,1.693,0,0,1-2.161-1.576V72.819a2.756,2.756,0,0,1,2.161-2.462l5-1.17a1.629,1.629,0,0,1,2.161,1.576Zm.661-19.945c0,1.17-1.186,1.921-2.657,1.65l-6.168-1.11a3.121,3.121,0,0,1-2.657-2.747V48.161c0-1.261,1.186-2,2.657-1.651l6.168,1.44a3.274,3.274,0,0,1,2.657,2.747Zm20.741,65.945a2.336,2.336,0,0,1-2.162,2.176l-5,.5a1.891,1.891,0,0,1-2.161-1.861v-4.818a2.245,2.245,0,0,1,2.161-2.176l5-.225a1.961,1.961,0,0,1,2.162,1.861Zm0-11.046a2.139,2.139,0,0,1-2.162,2.026l-5,.15a2.057,2.057,0,0,1-2.161-2.011v-4.833a2.06,2.06,0,0,1,2.161-2.026l5,.12a2.137,2.137,0,0,1,2.162,2.011Zm0-11.061a1.973,1.973,0,0,1-2.162,1.876l-5-.195a2.232,2.232,0,0,1-2.161-2.161V94.16a1.9,1.9,0,0,1,2.161-1.876l5,.465a2.323,2.323,0,0,1,2.162,2.161Zm0-11.046a1.817,1.817,0,0,1-2.162,1.726l-5-.555a2.441,2.441,0,0,1-2.161-2.312V82.454a1.757,1.757,0,0,1,2.161-1.726l5,.825a2.543,2.543,0,0,1,2.162,2.312Zm0-11.061a1.688,1.688,0,0,1-2.162,1.576l-5-.9a2.657,2.657,0,0,1-2.161-2.461V70.763a1.636,1.636,0,0,1,2.161-1.576l5,1.17a2.789,2.789,0,0,1,2.162,2.462ZM153.3,119.9a2.236,2.236,0,0,1-2.161,1.936l-5,.5a1.805,1.805,0,0,1-2.161-1.621v-4.262a2.128,2.128,0,0,1,2.161-1.936l5-.225a1.879,1.879,0,0,1,2.161,1.62Zm0-9.7a2.046,2.046,0,0,1-2.161,1.786l-5,.151a1.962,1.962,0,0,1-2.161-1.771v-4.263a1.954,1.954,0,0,1,2.161-1.786l5,.12a2.047,2.047,0,0,1,2.161,1.771Zm0-9.71a1.89,1.89,0,0,1-2.161,1.636l-5-.195a2.127,2.127,0,0,1-2.161-1.921V95.751a1.807,1.807,0,0,1,2.161-1.636l5,.465A2.224,2.224,0,0,1,153.3,96.5Zm0-9.695c0,.946-.961,1.621-2.161,1.486l-5-.555a2.327,2.327,0,0,1-2.161-2.071V85.395c0-1.02.96-1.681,2.161-1.485l5,.825a2.436,2.436,0,0,1,2.161,2.071Zm0-9.695c0,.946-.961,1.546-2.161,1.336l-5-.9a2.535,2.535,0,0,1-2.161-2.221V75.055c0-1.021.96-1.606,2.161-1.336l5,1.171a2.674,2.674,0,0,1,2.161,2.221Z"/></g></svg>