<svg xmlns="http://www.w3.org/2000/svg" width="102.4" height="122.644" viewBox="0 0 102.4 122.644"><defs><style>.a{fill:none;stroke-width:1.18px;}.a,.b{stroke:#132a3e;stroke-miterlimit:10;fill-rule:evenodd;}.b{fill:#e8c8a1;}</style></defs><g transform="translate(-38.3 -28.178)"><path class="a" d="M118.179,93.294A30.394,30.394,0,0,0,83.5,129.988H38.89V28.768h79.289ZM50.7,40.577v6.748H87.813V40.577Zm0,15.183v6.748h53.984V55.76Zm0,15.183v6.748H97.935V70.943Zm0,15.183v6.748H87.813V86.126Zm64.036,13.5A25.305,25.305,0,1,1,89.5,125,25.3,25.3,0,0,1,114.735,99.622Zm-7.141,30.485-1.275,4.548a19.071,19.071,0,0,0,7.237,1.658v3.695h4.212v-4c4.894-.737,7.544-3.68,7.544-7.134,0-3.524-2-5.666-7.074-7.286-3.652-1.207-5.144-2.06-5.144-3.3,0-1.084.883-2.213,3.651-2.213a14.508,14.508,0,0,1,6.142,1.363l1.272-4.38a16.6,16.6,0,0,0-6.216-1.282v-3.416h-4.174v3.684c-4.551.775-7.189,3.45-7.189,6.9,0,3.769,3.1,5.71,7.659,7.1,3.189.969,4.555,1.9,4.555,3.375,0,1.513-1.66,2.407-4.13,2.407A16.137,16.137,0,0,1,107.594,130.107Z"/><path class="b" d="M114.735,99.622A25.305,25.305,0,1,1,89.5,125,25.3,25.3,0,0,1,114.735,99.622Zm-7.141,30.485-1.275,4.548a19.071,19.071,0,0,0,7.237,1.658v3.695h4.212v-4c4.894-.737,7.544-3.68,7.544-7.134,0-3.524-2-5.666-7.074-7.286-3.652-1.207-5.144-2.06-5.144-3.3,0-1.084.883-2.213,3.651-2.213a14.508,14.508,0,0,1,6.142,1.363l1.272-4.38a16.6,16.6,0,0,0-6.216-1.282v-3.416h-4.174v3.684c-4.551.775-7.189,3.45-7.189,6.9,0,3.769,3.1,5.71,7.659,7.1,3.189.969,4.555,1.9,4.555,3.375,0,1.513-1.66,2.407-4.13,2.407A16.137,16.137,0,0,1,107.594,130.107Z"/></g></svg>