<svg xmlns="http://www.w3.org/2000/svg" width="154.417" height="46.458" viewBox="0 0 154.417 46.458"><defs><style>.a{fill:#141414;}.b,.c{fill:#d6000d;}.b{fill-rule:evenodd;}</style></defs><g transform="translate(-587.712 -1140.446)"><path class="a" d="M2173.622,1976.5h0c.2.021.393.037.574.047s.36.013.53.013a4.382,4.382,0,0,0,2.744-.731,2.568,2.568,0,0,0,.929-2.146,2.2,2.2,0,0,0-.839-1.861,3.968,3.968,0,0,0-2.438-.637c-.2,0-.413.005-.637.023s-.482.042-.766.073c-.029.37-.058.76-.074,1.173s-.022.873-.022,1.385Zm-1.762,7.639h0q.089-1,.131-2.219t.044-3.256q0-2.8-.031-4.824c-.02-1.349-.05-2.448-.1-3.294.088.008.208.013.357.02.3.013.505.02.6.02.122,0,.453-.012.988-.04s1.008-.039,1.415-.039a7.368,7.368,0,0,1,3.75.736,2.532,2.532,0,0,1,1.189,2.324,2.806,2.806,0,0,1-.833,2.107,4.883,4.883,0,0,1-2.509,1.137,4.981,4.981,0,0,1,2.8,1,2.868,2.868,0,0,1,.906,2.273,3.561,3.561,0,0,1-1.358,3.019,6.53,6.53,0,0,1-3.987,1.031q-.493,0-1.268-.04c-.515-.024-.869-.036-1.061-.036-.124,0-.255,0-.4.012s-.358.031-.649.064m1.693-6.8h0v1.957c0,.976.009,1.765.029,2.371s.054,1.131.1,1.584c.244.059.478.1.7.133a5.159,5.159,0,0,0,.646.043,4.169,4.169,0,0,0,2.747-.834,3.2,3.2,0,0,0,.063-4.588,4.6,4.6,0,0,0-2.889-.751c-.218,0-.619.023-1.19.068-.086,0-.152.011-.205.017m10.163,6.764h0c.047-.644.076-1.365.1-2.155s.03-1.777.03-2.96v-1.647q0-3.168-.03-4.49c-.02-.882-.049-1.649-.1-2.3a3.746,3.746,0,0,0,.421.056c.145.013.307.02.479.02s.338-.007.49-.02.3-.028.458-.056c-.045.448-.075.966-.091,1.561s-.024,1.372-.024,2.333v6.17c0,1.049.007,1.8.024,2.261s.045.873.091,1.227c-.141-.027-.287-.043-.436-.056s-.3-.02-.474-.02-.339.007-.492.02-.3.03-.447.056m5.258-.01h0q.122-2.673.194-5.594t.066-6.1v-2.1h.367q2.132,2.458,4.457,4.954t5.286,5.478c0-.064,0-.164.01-.3.024-.678.033-1.161.033-1.446,0-1.593-.013-3.111-.043-4.546s-.072-2.73-.132-3.881c.18.026.315.043.4.052a2.057,2.057,0,0,0,.241.017,2.226,2.226,0,0,0,.258-.017q.139-.014.377-.052-.085,2.265-.129,4.576t-.046,4.725q0,.869.009,1.868t.03,2.635h-.251q-.911-1.13-2.156-2.524t-2.922-3.15l-4.8-5.058q-.012.221-.041,1.135c-.017.6-.026,1.09-.026,1.46q0,1.207.042,3.092t.134,4.774c-.121-.031-.235-.05-.347-.067a2.864,2.864,0,0,0-.331-.019,2.017,2.017,0,0,0-.321.023c-.105.016-.228.036-.366.063m14.006-.784h0a10.134,10.134,0,0,0,.29-1.051,9.048,9.048,0,0,0,.149-1.052,3.756,3.756,0,0,0,1.3,1.739,3.288,3.288,0,0,0,1.97.625,2.761,2.761,0,0,0,2.066-.794,2.908,2.908,0,0,0,.774-2.122,2.347,2.347,0,0,0-.447-1.489,3.722,3.722,0,0,0-1.561-1.011l-1.606-.677a4.95,4.95,0,0,1-2.008-1.367,3.072,3.072,0,0,1-.627-1.967,3.574,3.574,0,0,1,1.164-2.753,4.28,4.28,0,0,1,3.023-1.072,6.582,6.582,0,0,1,1.539.178,6.971,6.971,0,0,1,1.471.549c-.095.212-.19.443-.284.695a7.807,7.807,0,0,0-.267.837,3.608,3.608,0,0,0-1.211-1.148,3.094,3.094,0,0,0-1.53-.384,2.308,2.308,0,0,0-1.739.665,2.458,2.458,0,0,0-.645,1.794,2.107,2.107,0,0,0,.461,1.392,4.158,4.158,0,0,0,1.546,1.033l1.608.693a4.864,4.864,0,0,1,2.018,1.405,3.3,3.3,0,0,1,.6,2.044,4.012,4.012,0,0,1-1.3,3.111,4.9,4.9,0,0,1-3.429,1.18,5.913,5.913,0,0,1-1.823-.271,5.03,5.03,0,0,1-1.511-.784m13.484.794h0q-.8-2.635-1.793-5.8t-2.459-7.754a4.149,4.149,0,0,0,.447.056c.154.013.32.02.5.02s.352-.007.5-.02a4.1,4.1,0,0,0,.447-.056q.823,3.021,1.676,5.929t1.762,5.736q1.028-2.822,1.961-5.736t1.769-5.929a2.06,2.06,0,0,0,.3.056,2.57,2.57,0,0,0,.331.02,2.824,2.824,0,0,0,.345-.02,1.98,1.98,0,0,0,.313-.056q.872,2.856,1.825,5.73t1.983,5.739q.979-2.81,1.837-5.679t1.611-5.789a2.574,2.574,0,0,0,.3.053,2.256,2.256,0,0,0,.34.023,3.1,3.1,0,0,0,.364-.02,1.933,1.933,0,0,0,.315-.056q-1.356,3.983-3.912,11.691l-.611,1.861a2.159,2.159,0,0,0-.334-.056,3.118,3.118,0,0,0-.365-.02,3.311,3.311,0,0,0-.377.02,2.106,2.106,0,0,0-.339.056q-.745-2.559-1.654-5.309t-2-5.783q-1.549,4.715-2.427,7.34t-1.284,3.752q-.2-.048-.366-.072a2.048,2.048,0,0,0-.32-.023,2.231,2.231,0,0,0-.331.023,2.956,2.956,0,0,0-.357.072m17.89-6.169h0c.069,0,.273,0,.607.01s.635.009.894.009q.3,0,1.189-.009c.6-.008,1.089-.01,1.475-.01l-.341-.873c-.049-.142-.189-.479-.41-1.011s-.655-1.545-1.292-3.039Zm-3.691,6.169h0q1.861-4.068,3.353-7.429t2.777-6.373h.381q1.383,3.48,2.823,6.929t2.92,6.873c-.176-.03-.341-.052-.5-.07s-.315-.025-.469-.025a4.508,4.508,0,0,0-.48.023q-.247.024-.528.072-.349-1.086-.775-2.213t-.911-2.291l-.338-.792c-.291-.013-.6-.024-.936-.031s-.834-.009-1.5-.009-1.2,0-1.532.009-.646.017-.931.031q-.472,1.09-.963,2.356t-1.077,2.94a2.529,2.529,0,0,0-.331-.072,2.08,2.08,0,0,0-.33-.023,1.925,1.925,0,0,0-.309.023,2.676,2.676,0,0,0-.34.072m13.984-.01h0q.125-2.673.2-5.594t.066-6.1v-2.1h.367q2.132,2.458,4.458,4.954t5.287,5.478c0-.064,0-.164.008-.3.023-.678.035-1.161.035-1.446,0-1.593-.013-3.111-.043-4.546s-.075-2.73-.133-3.881c.178.026.314.043.4.052a2.08,2.08,0,0,0,.243.017,2.283,2.283,0,0,0,.258-.017c.092-.01.218-.027.376-.052q-.084,2.265-.129,4.576t-.047,4.725c0,.579,0,1.2.01,1.868s.018,1.544.031,2.635h-.252q-.912-1.13-2.154-2.524c-.835-.924-1.807-1.977-2.924-3.15l-4.8-5.058q-.008.221-.039,1.135c-.017.6-.026,1.09-.026,1.46q0,1.207.043,3.092t.132,4.774a3.5,3.5,0,0,0-.349-.067,2.81,2.81,0,0,0-.33-.019,2.013,2.013,0,0,0-.321.023c-.105.016-.227.036-.368.063m26.673-.582h0a22.557,22.557,0,0,1-2.736.618,16.317,16.317,0,0,1-2.545.215,7.629,7.629,0,0,1-5.4-1.841,6.443,6.443,0,0,1-1.987-4.97,6.815,6.815,0,0,1,2.136-5.262,8.115,8.115,0,0,1,5.72-1.97,10.575,10.575,0,0,1,2.665.319,7.613,7.613,0,0,1,2.218.949c-.1.3-.194.6-.271.889s-.145.571-.2.856a5.032,5.032,0,0,0-1.958-1.706,6.318,6.318,0,0,0-2.767-.562,5.144,5.144,0,0,0-4.041,1.723,6.653,6.653,0,0,0-1.531,4.592,6.386,6.386,0,0,0,1.593,4.535,5.489,5.489,0,0,0,4.219,1.71,7.811,7.811,0,0,0,3.217-.677c0-.122.008-.414.025-.866s.029-.817.029-1.081q0-.463-.02-1.022c-.012-.37-.029-.877-.055-1.514.224.034.4.054.508.063l.325.023.32-.023c.116-.01.285-.03.5-.063-.014.7-.028,1.314-.041,1.833s-.02.949-.02,1.283c0,.388.007.74.02,1.061s.036.616.07.888m2.737.591h0c.063-.833.106-1.805.136-2.919s.04-2.449.04-4.007c0-1.435-.015-2.685-.04-3.759s-.072-2.026-.136-2.867c.278.013.582.024.91.031s.839.009,1.54.009q1.359,0,2.414-.009t2.143-.031c0,.059,0,.153-.011.281s-.009.228-.009.3c0,.059,0,.151.009.28s.011.225.011.291c-.751-.066-1.521-.113-2.311-.145s-1.59-.051-2.4-.051h-.476c-.008.767-.015,1.5-.017,2.2s0,1.358,0,1.987v.792h.35q.9,0,1.993-.043c.729-.03,1.5-.066,2.325-.113-.014.142-.024.257-.029.35s-.011.176-.011.261c0,.07,0,.149.011.232s.015.192.029.322a8.806,8.806,0,0,0-1.191-.123q-.708-.034-2.565-.034h-.912v.949q0,1.7,0,2.757c0,.708.009,1.4.017,2.087h.495c.57,0,1.264-.02,2.087-.056s1.713-.1,2.677-.166c0,.067,0,.162-.009.3s-.011.235-.011.3,0,.165.011.3.009.229.009.295c-.375-.013-.792-.024-1.259-.03s-1.177-.011-2.139-.011q-1.476,0-2.244.011c-.514.005-.994.016-1.439.03m11.625-7.247h0a2.031,2.031,0,0,0,.27.025c.091,0,.221,0,.379,0a6.1,6.1,0,0,0,3.328-.727,2.454,2.454,0,0,0,1.1-2.2,2.409,2.409,0,0,0-.855-2.013,4.06,4.06,0,0,0-2.555-.678c-.205,0-.615.02-1.22.06-.142.007-.255.01-.331.016-.04.3-.065.611-.084.943s-.031.691-.031,1.085v3.484Zm-1.742,7.247c.041-.7.066-1.5.086-2.394s.03-2.355.03-4.368q0-2.567-.03-4.122c-.02-1.035-.049-1.925-.1-2.669a1.369,1.369,0,0,0,.2.01c.359.02.6.03.722.03.249,0,.72-.012,1.425-.04s1.286-.039,1.743-.039a5.772,5.772,0,0,1,3.359.8,2.789,2.789,0,0,1,1.108,2.418,3.1,3.1,0,0,1-1.033,2.363,5.729,5.729,0,0,1-2.939,1.306q1.414,1.881,5.015,6.329c.135.167.235.294.3.377-.22-.032-.426-.056-.618-.072s-.383-.023-.571-.023-.365.01-.554.025-.385.04-.6.07c-.511-.744-.964-1.4-1.363-1.947s-.765-1.055-1.11-1.5l-2.168-2.781a1.071,1.071,0,0,0-.35-.333.867.867,0,0,0-.436-.1,2.461,2.461,0,0,0-.328.03.354.354,0,0,1-.051.011v3.633c0,.443.011.916.031,1.411s.042,1.025.075,1.581c-.174-.032-.334-.056-.481-.072a3.742,3.742,0,0,0-.437-.023,4,4,0,0,0-.448.023q-.228.024-.482.072" transform="translate(-1551.7 -812.85)"/><path class="a" d="M6550.556,2849.152h0c.109.011.21.021.308.026s.193.007.282.007a2.355,2.355,0,0,0,1.467-.39,1.375,1.375,0,0,0,.5-1.148,1.178,1.178,0,0,0-.449-1,2.126,2.126,0,0,0-1.3-.339c-.106,0-.222,0-.341.012s-.259.023-.411.039c-.016.2-.03.406-.039.627s-.012.467-.012.74Zm-.942,4.083h0q.048-.533.071-1.186t.024-1.741q0-1.495-.018-2.577c-.009-.722-.026-1.308-.051-1.761.049,0,.112.007.191.011.163.008.27.011.321.011s.243-.007.528-.021.541-.021.758-.021a3.926,3.926,0,0,1,2,.394,1.351,1.351,0,0,1,.636,1.243,1.5,1.5,0,0,1-.444,1.125,2.611,2.611,0,0,1-1.342.607,2.65,2.65,0,0,1,1.5.538,1.528,1.528,0,0,1,.484,1.213,1.9,1.9,0,0,1-.725,1.614,3.487,3.487,0,0,1-2.132.551c-.174,0-.4-.007-.676-.021s-.464-.019-.567-.019c-.066,0-.137,0-.212.007s-.19.016-.347.034m.9-3.637h0v1.046q0,.783.017,1.267c.01.323.028.6.052.846a3.239,3.239,0,0,0,.376.071,2.492,2.492,0,0,0,.344.023,2.227,2.227,0,0,0,1.469-.445,1.711,1.711,0,0,0,.033-2.453,2.462,2.462,0,0,0-1.545-.4c-.116,0-.33.012-.635.038-.046,0-.083.005-.11.008m6.358-.257h0c.044.007.091.012.144.015h.2a3.239,3.239,0,0,0,1.778-.39,1.306,1.306,0,0,0,.589-1.173,1.29,1.29,0,0,0-.458-1.077,2.179,2.179,0,0,0-1.367-.362c-.109,0-.328.011-.652.032-.076,0-.135.005-.176.009q-.03.237-.046.5c-.01.175-.016.369-.016.579v1.863Zm-.931,3.873h0c.022-.373.035-.8.046-1.28s.016-1.258.016-2.333q0-1.374-.016-2.2t-.051-1.427a.717.717,0,0,0,.1.005c.193.011.322.016.388.016.132,0,.385-.007.762-.021s.687-.021.93-.021a3.08,3.08,0,0,1,1.8.428,1.49,1.49,0,0,1,.591,1.291,1.657,1.657,0,0,1-.551,1.265,3.056,3.056,0,0,1-1.571.7q.757,1,2.682,3.382c.072.09.125.157.161.2-.116-.018-.228-.03-.331-.038s-.2-.013-.306-.013-.195.005-.3.014-.206.021-.321.036c-.273-.4-.515-.746-.726-1.041s-.411-.563-.594-.8l-1.159-1.486a.575.575,0,0,0-.187-.178.46.46,0,0,0-.233-.055,1.326,1.326,0,0,0-.174.016l-.026.005v1.942c0,.236.005.49.016.754s.023.548.041.845c-.093-.018-.179-.03-.258-.038a2,2,0,0,0-.233-.013,2.139,2.139,0,0,0-.239.013c-.082.008-.168.02-.258.038m7.273-3.3h0l.326,0c.18,0,.339.005.477.005.107,0,.32,0,.636-.005s.581,0,.788,0l-.182-.468q-.042-.112-.221-.539t-.691-1.625Zm-1.972,3.3h0q.992-2.173,1.792-3.969t1.484-3.408h.2q.74,1.861,1.508,3.7t1.562,3.673c-.094-.015-.182-.028-.267-.036a2.29,2.29,0,0,0-.251-.014,2.415,2.415,0,0,0-.256.013c-.088.008-.182.02-.283.038q-.185-.581-.415-1.181c-.15-.4-.314-.812-.486-1.225l-.182-.425c-.154-.007-.32-.012-.5-.016s-.447,0-.805,0-.64,0-.818,0-.346.009-.5.016q-.253.583-.515,1.26c-.176.45-.366.974-.577,1.571a1.31,1.31,0,0,0-.354-.051,1.051,1.051,0,0,0-.164.013,1.26,1.26,0,0,0-.181.038m6.693,0h0q1.24-1.748,2.377-3.433t2.18-3.3c-.1-.007-.206-.012-.321-.013s-.291,0-.529,0c-.475,0-.979.012-1.508.031s-1.087.051-1.671.088v-.027a2.549,2.549,0,0,0,.021-.279c0-.04,0-.084,0-.132s-.01-.1-.017-.173c.767.015,1.342.023,1.73.028s.746.008,1.083.008.683,0,1.068-.007.959-.016,1.726-.035q-1.315,1.738-2.478,3.413t-2.187,3.286c.35.011.611.017.789.021s.337.006.485.006c.5,0,1.024-.011,1.559-.03s1.083-.051,1.643-.088c0,.037,0,.076-.008.122s0,.11,0,.2,0,.161,0,.2,0,.078.008.113c-.2,0-.7-.011-1.492-.019s-1.421-.012-1.889-.012c-.441,0-.874,0-1.3.007s-.851.014-1.264.024m7.238,0h0c.025-.344.04-.729.051-1.152s.016-.948.016-1.581v-.88q0-1.7-.016-2.4c-.011-.47-.026-.881-.051-1.23a2.255,2.255,0,0,0,.224.031c.077.007.165.009.257.009s.179,0,.262-.009.162-.016.245-.031c-.026.239-.042.516-.05.834s-.013.734-.013,1.247v3.3q0,.841.013,1.21a6.542,6.542,0,0,0,.05.654,2.151,2.151,0,0,0-.235-.03c-.079-.007-.161-.011-.25-.011s-.184,0-.264.011a2.185,2.185,0,0,0-.239.03m2.9,0c.018-.622.032-1.23.044-1.826s.017-1.192.017-1.786q0-.99-.016-1.875c-.01-.59-.025-1.176-.051-1.756.079.015.16.023.24.031s.168.009.266.009.175,0,.259-.009a2.308,2.308,0,0,0,.23-.031c-.031.691-.052,1.353-.068,1.989s-.025,1.227-.025,1.775q0,.857.014,1.58t.046,1.4c.077,0,.162.007.256.008s.25,0,.464,0c.46,0,.871-.012,1.23-.039a7.223,7.223,0,0,0,.93-.122c0,.032,0,.082-.005.152s0,.127,0,.17,0,.081,0,.154a1.391,1.391,0,0,1,0,.17l-1.547-.024c-.408-.005-.709-.007-.906-.007-.252,0-.493,0-.722.007s-.449.014-.655.024" transform="translate(-5839.784 -1670.459)"/><path class="b" d="M1230.491,1148.023v7.376a7.592,7.592,0,0,1-7.59,7.59h-7.577v-22.543h7.577A7.581,7.581,0,0,1,1230.491,1148.023Z" transform="translate(-614.756 0)"/><path class="b" d="M1230.491,2315.534v7.376a7.592,7.592,0,0,1-7.59,7.591h-7.577v-22.544h7.577A7.581,7.581,0,0,1,1230.491,2315.534Z" transform="translate(-614.756 -1143.597)"/><rect class="c" width="11.353" height="22.539" transform="translate(587.712 1140.446)"/><rect class="c" width="11.353" height="22.539" transform="translate(587.712 1164.364)"/></g></svg>