<svg xmlns="http://www.w3.org/2000/svg" width="123.902" height="110.338" viewBox="0 0 123.902 110.338"><defs><style>.a{fill:none;stroke-width:1.18px;}.a,.b{stroke:#132a3e;stroke-miterlimit:10;}.b{fill:#e8c8a1;}</style></defs><g transform="translate(-27.549 -34.331)"><path class="a" d="M94.28,117.338a30.892,30.892,0,0,1,18.6-28.29V55.978L90.146,34.921H28.139V144.079H90.146l14.985-3.23A31.211,31.211,0,0,1,94.28,117.338ZM53.717,42.156H64.7v10.98H53.717Zm0,18.214H64.7V71.35H53.717Zm0,18.343H64.7V89.694H53.717Zm0,18.215H64.7v10.98H53.717ZM35.374,42.156h10.98v10.98H35.374Zm0,18.214h10.98V71.35H35.374Zm0,18.343h10.98V89.694H35.374Zm0,18.215h10.98v10.98H35.374Zm22.089,40.046H44.675V115.142H57.463Zm16.148,0H60.822V115.142H73.611Zm9.3-29.066H71.932V96.928h10.98Zm0-18.214H71.932V78.713h10.98Zm0-18.344H71.932V60.37h10.98Zm0-18.214H71.932V42.156h10.98Z"/><path class="a" d="M125.154,91.5a25.707,25.707,0,1,0,25.707,25.707A25.691,25.691,0,0,0,125.154,91.5Zm2.067,40.046v2.584a1.019,1.019,0,0,1-1.034,1.033h-2.842a1.019,1.019,0,0,1-1.033-1.033V131.29a15.737,15.737,0,0,1-5.555-2.971,1.3,1.3,0,0,1-.129-1.938l1.938-1.938a1.216,1.216,0,0,1,1.679-.129c1.162.9,3.229,2.2,4.909,2.2,3.488,0,3.488-2.067,3.488-2.842,0-1.163-.259-2.2-4.134-3.617-5.426-1.938-8.139-4.909-8.139-9.043a7.734,7.734,0,0,1,5.943-7.621v-2.842a1.019,1.019,0,0,1,1.033-1.034h2.842a1.02,1.02,0,0,1,1.034,1.034v2.583A13.888,13.888,0,0,1,132,105.195a1.32,1.32,0,0,1,.259,1.938l-1.938,2.067a1.371,1.371,0,0,1-1.679.258,7.472,7.472,0,0,0-3.359-1.162c-.775,0-3.488.258-3.488,2.583,0,.646,0,2.326,4.65,4.005,2.326.775,7.751,2.713,7.751,8.655A7.966,7.966,0,0,1,127.221,131.548Z"/><path class="b" d="M125.154,91.5a25.707,25.707,0,1,0,25.707,25.707A25.691,25.691,0,0,0,125.154,91.5Zm2.067,40.046v2.584a1.019,1.019,0,0,1-1.034,1.033h-2.842a1.019,1.019,0,0,1-1.033-1.033V131.29a15.737,15.737,0,0,1-5.555-2.971,1.3,1.3,0,0,1-.129-1.938l1.938-1.938a1.216,1.216,0,0,1,1.679-.129c1.162.9,3.229,2.2,4.909,2.2,3.488,0,3.488-2.067,3.488-2.842,0-1.163-.259-2.2-4.134-3.617-5.426-1.938-8.139-4.909-8.139-9.043a7.734,7.734,0,0,1,5.943-7.621v-2.842a1.019,1.019,0,0,1,1.033-1.034h2.842a1.02,1.02,0,0,1,1.034,1.034v2.583A13.888,13.888,0,0,1,132,105.195a1.32,1.32,0,0,1,.259,1.938l-1.938,2.067a1.371,1.371,0,0,1-1.679.258,7.472,7.472,0,0,0-3.359-1.162c-.775,0-3.488.258-3.488,2.583,0,.646,0,2.326,4.65,4.005,2.326.775,7.751,2.713,7.751,8.655A7.966,7.966,0,0,1,127.221,131.548Z"/><path class="b" d="M53.717,42.156H64.7v10.98H53.717Zm0,18.214H64.7V71.35H53.717Zm0,18.343H64.7V89.694H53.717Zm0,18.215H64.7v10.98H53.717ZM35.374,42.156h10.98v10.98H35.374Zm0,18.214h10.98V71.35H35.374Zm0,18.343h10.98V89.694H35.374Zm0,18.215h10.98v10.98H35.374Zm22.089,40.046H44.675V115.142H57.463Zm16.148,0H60.822V115.142H73.611Zm9.3-29.066H71.932V96.928h10.98Zm0-18.214H71.932V78.713h10.98Zm0-18.344H71.932V60.37h10.98Zm0-18.214H71.932V42.156h10.98Z"/></g></svg>